<svg xmlns="http://www.w3.org/2000/svg" viewBox="0 0 134.27 58.88"><defs><style>.cls-1{fill:#d3d2f9;}.cls-2{fill:#fff;}</style></defs><title>Asset 4cloud</title><g id="Layer_2" data-name="Layer 2"><g id="Layer_2-2" data-name="Layer 2"><path class="cls-1" d="M82.07,46.62a42,42,0,0,0-9.07.8c-2.43-1.9-7.83-3.66-14.62-3.77a14.55,14.55,0,0,0-4.31-2.18,31.15,31.15,0,0,0,5,.41C73,41.88,84.3,32.5,84.3,20.94S73,0,59,0C48.12,0,38.83,5.75,35.3,13.79c-6.92,1.64-12.11,6.68-12.76,12.81a8.49,8.49,0,0,0-4.37,7,7,7,0,0,0-1.74-.22c-3.33,0-6,2.3-6,5.13,0,.12,0,.23,0,.34a6.82,6.82,0,0,0-3.49-1c-3,0-5.43,1.83-5.93,4.24a2.77,2.77,0,0,0-1,2.12c0,2.5,2.32,6,12,6l1.89,0,1.22,0c7.54,0,13.94-1.24,16.39-3,1.53,1.62,4.7,3,10.74,3,1.12,0,2.22,0,3.29-.08,1.12,2,4.24,3.93,11.44,3.93a56.08,56.08,0,0,0,10.68-.95c.7,2.73,4,5.78,13.52,5.78,11,0,20-2.39,20-5.33S93.09,46.62,82.07,46.62ZM30.5,43.11c-.3-.19-.64-.38-1-.56A14,14,0,0,0,31,42.4,2.87,2.87,0,0,0,30.5,43.11Z"/><path class="cls-2" d="M116,19.83a22.6,22.6,0,0,0-13.15,3.92c-.26-4.46-4.42-8-9.53-8a10.34,10.34,0,0,0-6.1,1.94A26.63,26.63,0,0,0,35.5,26.62a26.35,26.35,0,0,0,.25,3.58,10.46,10.46,0,0,0-5.67,5.14A32.26,32.26,0,0,0,25.33,35c-6.95,0-12.58,2.07-12.58,4.62,0,.06,0,.11,0,.17a24,24,0,0,0-2.9-.17c-4.34,0-7.87,1-7.87,2.32s3.53,2.31,7.87,2.31a16.12,16.12,0,0,0,7-1.23,27.39,27.39,0,0,0,8.51,1.23,30.13,30.13,0,0,0,6.46-.66,14,14,0,0,0,10.06,3.85,16.56,16.56,0,0,0,3.27-.33A26.64,26.64,0,0,0,72.8,51c3.78,3.8,9.85,6.27,16.73,6.27,10.19,0,18.66-5.43,20.42-12.58a25.56,25.56,0,0,0,6,.73c10.09,0,18.28-5.73,18.28-12.8S126.08,19.83,116,19.83Z"/><path class="cls-1" d="M68.13,4c-.27-.09,16.62,2,15.12,16.17C83.25,20.17,83.68,9,68.13,4Z"/><path class="cls-1" d="M92.58,30.83s5-10.83-9.33-10.66C83.25,20.17,94.92,19.5,92.58,30.83Z"/><path class="cls-1" d="M110.3,29.44s-5-7.61-12.93-3.94C97.37,25.5,102.52,22.38,110.3,29.44Z"/><path class="cls-1" d="M58.38,43.65s11.13,4.2,19.75.44,7.12-13.26,7.12-13.26S82.35,49.8,58.38,43.65Z"/><path class="cls-1" d="M55.08,19.17s.5-4.67,8.17-2.34,4.88,8.67,4.88,8.67S67.42,14,55.08,19.17Z"/><path class="cls-1" d="M78.13,27.83s-1.62-7.67-10-2.33C68.13,25.5,75,22.17,78.13,27.83Z"/><path class="cls-1" d="M44.25,29.44c.1.83-4.83-13.77,10.83-10.27C55.08,19.17,42.92,18,44.25,29.44Z"/></g></g></svg>