<svg xmlns="http://www.w3.org/2000/svg" viewBox="0 0 486.14 192.05"><defs><style>.cls-1{fill:#fff;}.cls-2,.cls-3{fill:#d3d2f9;}.cls-3{opacity:0.29;}</style></defs><title>Asset 1cloud</title><g id="Layer_2" data-name="Layer 2"><g id="Layer_2-2" data-name="Layer 2"><path class="cls-1" d="M287.42,86.83c0,9-8.56,16.34-19.12,16.34s-19.11-7.32-19.11-16.34,8.56-16.34,19.11-16.34S287.42,77.81,287.42,86.83Z"/><circle class="cls-1" cx="233.28" cy="86.4" r="29.28"/><path class="cls-2" d="M207,36.44c-16.38,0-29.67,9.45-29.67,21.11,0,4.89,2.34,9.39,6.26,13-15.84.43-28.51,9.71-28.51,21.09,0,11.66,13.29,21.12,29.67,21.12s29.67-9.46,29.67-21.12c0-4.89-2.34-9.39-6.26-13,15.85-.44,28.51-9.71,28.51-21.1C236.67,45.89,223.38,36.44,207,36.44Z"/><path class="cls-2" d="M358.63,70.49C342.24,70.49,329,80,329,91.61s13.28,21.12,29.67,21.12,29.66-9.46,29.66-21.12S375,70.49,358.63,70.49Z"/><path class="cls-2" d="M107.64,77.59C91.26,77.59,78,88.84,78,102.72a22.28,22.28,0,0,0,4.61,13.45c-1-.09-2-.14-3.09-.14-16.39,0-29.67,11.25-29.67,25.13a21.66,21.66,0,0,0,.24,3.13c-8.82.81-15.68,7.12-15.68,14.8,0,8.23,7.87,14.9,17.59,14.9,7.48,0,13.86-4,16.4-9.54a34.16,34.16,0,0,0,11.12,1.83c16.38,0,29.66-11.25,29.66-25.12a22.28,22.28,0,0,0-4.61-13.45c1,.09,2,.13,3.09.13,16.39,0,29.67-11.24,29.67-25.12S124,77.59,107.64,77.59Z"/><path class="cls-1" d="M472.41,170.06a29.85,29.85,0,0,0-5.14.43c0-.15,0-.29,0-.43,0-7.68-8.35-13.9-18.66-13.9a25.07,25.07,0,0,0-5.7.66c-4.17-4.54-11.54-8-20.42-9.34,4.63-3.73,7.45-8.62,7.45-14,0-11-11.71-20-26.7-21,0-.37,0-.73,0-1.1,0-19.57-17.9-35.44-40-35.44A43.15,43.15,0,0,0,339,83.22a22.9,22.9,0,0,0-11.56-3,24.37,24.37,0,0,0-5.69.67c-3-3.28-7.69-6-13.39-7.74a16.3,16.3,0,0,0,3.12-9.42c0-4.73-2.19-9.09-5.87-12.61a24,24,0,0,0,.44-4.6,24.37,24.37,0,0,0-24.37-24.37h-.63C275.15,9.17,260.79,0,244,0l-.93,0-.93,0C225.35,0,211,9.17,205.05,22.16h-.62a24.38,24.38,0,1,0,5.37,48.14c-.63.84-1.22,1.71-1.77,2.59a53.54,53.54,0,0,0-14.7-2c-12.6,0-23.52,4-29,10a24.5,24.5,0,0,0-5.69-.67,22.9,22.9,0,0,0-11.56,3,43.16,43.16,0,0,0-24.28-7.28c-22.09,0-40,15.87-40,35.44,0,.37,0,.73,0,1.1-15,1.06-26.69,10.06-26.69,21,0,5.37,2.82,10.26,7.45,14-8.88,1.36-16.26,4.8-20.43,9.34a24.92,24.92,0,0,0-5.69-.66c-10.31,0-18.67,6.22-18.67,13.9,0,.14,0,.28,0,.43a29.77,29.77,0,0,0-5.14-.43C6.14,170.06,0,172.68,0,175.91s6.14,5.85,13.72,5.85a24.46,24.46,0,0,0,10.39-2A22.11,22.11,0,0,0,37.5,184a22,22,0,0,0,13.59-4.38A49.45,49.45,0,0,0,72.17,184a52.14,52.14,0,0,0,17.18-2.77,29.26,29.26,0,0,0,44.65,1,24.33,24.33,0,0,0,26.27,0c.85.05,1.7.08,2.56.08a44.11,44.11,0,0,0,15.65-2.82,49.19,49.19,0,0,0,21.3,4.49,50.7,50.7,0,0,0,19.27-3.58,22.61,22.61,0,0,0,4.82,1.13A23.11,23.11,0,0,0,234.44,184a23.71,23.71,0,0,0,8.63-1.58,23.69,23.69,0,0,0,8.62,1.58,23.18,23.18,0,0,0,10.58-2.45,22.37,22.37,0,0,0,4.81-1.13A50.79,50.79,0,0,0,286.36,184a49.19,49.19,0,0,0,21.3-4.49,44.1,44.1,0,0,0,15.64,2.82c.86,0,1.72,0,2.56-.08a24.33,24.33,0,0,0,26.27,0,29.27,29.27,0,0,0,44.66-1A52.09,52.09,0,0,0,414,184a49.45,49.45,0,0,0,21.08-4.38,23.31,23.31,0,0,0,27,.16,24.41,24.41,0,0,0,10.38,2c7.58,0,13.73-2.62,13.73-5.85S480,170.06,472.41,170.06Z"/><path class="cls-2" d="M299.69,74.58c-.89-.32,14.76,4.43,16.83,14.76s-8.42,19.34-8.42,19.34S325.13,83.82,299.69,74.58Z"/><path class="cls-2" d="M280.92,25.06s17.47,6.62,18.73,20.62-18.73,20-18.73,20S313.58,46.1,280.92,25.06Z"/><path class="cls-2" d="M259.58,89.68c-2.68-.09,23.46,0,30.73,7.66s9,19.34,6.32,23C296.63,120.34,298.58,91,259.58,89.68Z"/><path class="cls-2" d="M344,139.33c-10.9-23-47.39-19-47.39-19C335.15,110.47,343.8,138.58,344,139.33Z"/><path class="cls-2" d="M344,139.33a9.66,9.66,0,0,1,1.11-.83C344.78,138.76,344.41,139,344,139.33Z"/><path class="cls-2" d="M388.29,145.34C362.92,129.43,349,136,345.15,138.5,366.88,122.79,388.29,145.34,388.29,145.34Z"/><path class="cls-2" d="M420.92,151.34c-19-17.36-32.16-6.41-32.62-6C401.34,128.35,420.92,151.34,420.92,151.34Z"/><path class="cls-3" d="M420.92,151.34c-19-17.36-32.16-6.41-32.62-6h0C362.92,129.43,349,136,345.15,138.5c-.37.26-.74.54-1.11.83h0c-10.9-23-47.39-19-47.39-19s11.77-7.4,23.7-7.87,16.25,3.2,16.25,3.2S351.49,93.66,371,105s17.22,19.51,17.22,19.51,8.33-.84,19.33,3.33S420.92,151.34,420.92,151.34Z"/><path class="cls-2" d="M188.75,123.67a43.3,43.3,0,0,1-11.84,11.44l0,0c-.54.35-.91.56-1.08.66s0,0-.08,0c.67-.58,18.33-15.93,14.79-30.33-1.79-7.29-9-14.34-26.58-19.11-1.91-.51,16.41-3,24.54,9.63a38.25,38.25,0,0,1,4.45,9C195.24,112.34,193,117.56,188.75,123.67Z"/><path class="cls-2" d="M204,139.08c-13-9.72-27.66-3.52-28.29-3.25,0,0,0,0,.08,0,.36-.24.72-.45,1.08-.66l0,0C194.57,125,204,139.08,204,139.08Z"/><path class="cls-2" d="M238.25,153.34C233.66,122.19,205,138.52,204,139.08,239.08,114.83,238.25,153.34,238.25,153.34Z"/><path class="cls-2" d="M264.58,160.34c-9.65-18.34-25.2-7.8-26.27-7C258.59,137.06,264.58,160.34,264.58,160.34Z"/><path class="cls-2" d="M264.73,160.25a9.08,9.08,0,0,1,.85-.54C265.3,159.88,265,160.05,264.73,160.25Z"/><path class="cls-2" d="M290.31,164c-3.9-5.88-8.69-7.72-13.09-7.76a23.08,23.08,0,0,0-11.39,3.3c6.57-4.07,11.47-5.12,15.09-4.64h0C289,156,290.7,164.59,290.31,164Z"/><path class="cls-2" d="M82.86,112.48s36.22,2.38,29.64,22.79S81.5,157,81.5,157,143.14,127.61,82.86,112.48Z"/><path class="cls-2" d="M117.92,164s-9.14-19.25-32.07-7.64C85.85,156.4,106.25,148.4,117.92,164Z"/><path class="cls-2" d="M137.58,171s-3.33-15.94-19.66-7C117.92,164,134.24,160,137.58,171Z"/><path class="cls-2" d="M162.3,171s-11.73-13.67-24.72,0C137.58,171,150.38,161.21,162.3,171Z"/><path class="cls-3" d="M281,154.91h0l-3.7,1.34a23.08,23.08,0,0,0-11.39,3.3.53.53,0,0,1-.1.06l-.15.1c-.28.17-.56.34-.85.54a.26.26,0,0,0-.11.08h0c-9.65-18.34-25.2-7.8-26.27-7l0,0h0C233.66,122.19,205,138.52,204,139.08h0c-13-9.72-27.66-3.52-28.29-3.25.67-.58,18.33-15.93,14.79-30.33l2.41-.5s8.84-6.77,18.09-1.84,5.2,15.08,5.2,15.08,13.8-7.73,23.8-2.57,11.42,20.17,11.42,20.17,12.33-6.5,19.33,0,5.75,11.7,5.75,11.7,6.25-4.2,8.75,1.8C287.65,155.11,281.43,154.93,281,154.91Z"/></g></g></svg>