<svg xmlns="http://www.w3.org/2000/svg" viewBox="0 0 222.67 90.06"><defs><style>.cls-1{fill:#c7adf7;}.cls-2,.cls-4{fill:#fff;}.cls-3{fill:#d3d2f9;}.cls-4{opacity:0.57;}</style></defs><title>Asset 3cloud</title><g id="Layer_2" data-name="Layer 2"><g id="Layer_2-2" data-name="Layer 2"><path class="cls-1" d="M222.67,77.29c0,4.42-6.72,8-15,8-5,0-9.48-1.32-12.2-3.35-8.41,1.51-17.38-.14-23.23-6.17,1.65,4.07-3.7,8.93-7.91,10.19a53.15,53.15,0,0,1-22.9,1.85c-7.73-1.09-15.44-6.53-16.51-14.27-1.83,10-12.17,17.38-22.25,16.44s-19.61-3.93-21-14c-2,8.65-9.69,9.55-18.57,9.24A19.86,19.86,0,0,1,44.78,69C42,75.72,35.25,81.18,27.94,80.83S12.49,74.33,14.5,67.29c1.79-5.28,4.69-3.05,3.35-4a10.78,10.78,0,0,1-1.07-.85,14.7,14.7,0,0,1-4.05-5.85C5.58,56.21,0,53,0,49.13s5.89-7.24,13.31-7.48a16.92,16.92,0,0,1,3.79-5.31c7.56-7,20.07-6.85,28.59-1.07a19.72,19.72,0,0,1,8.15-20.92,19.71,19.71,0,0,1,22.43,1.13c-1.56-5.39,4.74-12.3,10.06-14C94.5-1.23,103.6,0,111.43,3.55s13.1,13.57,9,21.11a12,12,0,0,1,14,1.36,12,12,0,0,1,2.45,13.89A13.12,13.12,0,0,1,161,45.45a33.34,33.34,0,0,1,7-7.9c6.86-5.63,16.76-8.28,24.84-4.6,9.36,4.26,13.38,17.14,8.52,26.08,2.4-3,7.82-3.23,10.72-.41a9.62,9.62,0,0,1,2.64,7.53,12.25,12.25,0,0,1-.88,3.86C219.05,71.27,222.67,74.05,222.67,77.29Z"/><path class="cls-2" d="M214.73,66.15h-.32c-3,.14-5.73,1.48-8.52,2.5s-5.94,1.72-8.69.6-4.59-4.75-2.92-7.21c-6.52,5.54-17.86,3.69-22.28-3.64-5.13,6.35-16,6.81-21.64.91-5,7.6-16.36,10.06-24,5.19-1.13-.72-2.28-1.6-3.62-1.62a7,7,0,0,0-2.83.87C109.6,68.4,96.31,65,89.55,55.92a19.81,19.81,0,0,1-33.32-4.21c-3.72,5.1-9.2,9.43-15.51,9.73s-13-4.8-12.58-11.1a18.31,18.31,0,0,1-11.36,12.1,14.7,14.7,0,0,1-4.05-5.85C5.58,56.21,0,53,0,49.13s5.89-7.24,13.31-7.48a16.92,16.92,0,0,1,3.79-5.31c7.56-7,20.07-6.85,28.59-1.07a19.72,19.72,0,0,1,8.15-20.92,19.71,19.71,0,0,1,22.43,1.13c-1.56-5.39,4.74-12.3,10.06-14C94.5-1.23,103.6,0,111.43,3.55s13.1,13.57,9,21.11a12,12,0,0,1,14,1.36,12,12,0,0,1,2.45,13.89A13.12,13.12,0,0,1,161,45.45a33.34,33.34,0,0,1,7-7.9c6.86-5.63,16.76-8.28,24.84-4.6,9.36,4.26,13.38,17.14,8.52,26.08,2.4-3,7.82-3.23,10.72-.41A9.62,9.62,0,0,1,214.73,66.15Z"/><ellipse class="cls-3" cx="29" cy="59.96" rx="19.5" ry="9"/><path class="cls-3" d="M75.52,51.29c0,6.54-9.18,11.84-20.51,11.84S34.5,57.83,34.5,51.29,43.68,39.46,55,39.46,75.52,44.76,75.52,51.29Z"/><path class="cls-3" d="M97.33,39c3.1,9.2-3.07,19.58-13.77,23.19s-21.89-.93-25-10.14,3.06-19.58,13.76-23.19S94.22,29.81,97.33,39Z"/><ellipse class="cls-3" cx="66.5" cy="61.46" rx="18" ry="7.5"/><ellipse class="cls-3" cx="67.25" cy="61.46" rx="18.75" ry="7.5"/><path class="cls-1" d="M45.32,56c-8,0-15.16-1.38-20-3.56,2.89,4.08,11.34,7,21.33,7,11.68,0,21.28-4,22.3-9.2C64.74,53.67,55.74,56,45.32,56Z"/><path class="cls-1" d="M66.86,66.32a20.71,20.71,0,0,1-15.47-6.8C53.63,67.31,60.18,73,67.91,73,77,73,84.4,65.23,85.19,55.36A20.43,20.43,0,0,1,66.86,66.32Z"/><ellipse class="cls-3" cx="101.63" cy="55.65" rx="17.13" ry="14.19"/><ellipse class="cls-3" cx="117.81" cy="67.21" rx="16.19" ry="7.25"/><ellipse class="cls-3" cx="134.41" cy="61.96" rx="16.59" ry="11"/><path class="cls-1" d="M106.71,63.44c-6.57,0-12.09-2.82-13.74-6.65.46,4.69,6.14,8.4,13.09,8.4,5.31,0,9.87-2.17,11.94-5.27A18.12,18.12,0,0,1,106.71,63.44Z"/><path class="cls-3" d="M101.13,32.51c6.58-.21,12.19,2.43,14,6.2-.6-4.67-6.4-8.2-13.35-8-5.3.17-9.79,2.48-11.76,5.65A18.07,18.07,0,0,1,101.13,32.51Z"/><path class="cls-3" d="M117.88,36.81c5.22-.17,9.69,2.51,11.12,6.29-.51-4.67-5.14-8.23-10.66-8.05a10.59,10.59,0,0,0-9.3,5.57A12.5,12.5,0,0,1,117.88,36.81Z"/><path class="cls-3" d="M123.73,42.82c6.58-.21,12.19,2.43,14,6.2-.6-4.67-6.4-8.19-13.35-8-5.3.17-9.79,2.48-11.76,5.66A18.07,18.07,0,0,1,123.73,42.82Z"/><path class="cls-3" d="M83.86,20.63A9.36,9.36,0,0,1,93.16,27a8.82,8.82,0,0,0-8.93-8.11,8.66,8.66,0,0,0-7.72,5.52A9.57,9.57,0,0,1,83.86,20.63Z"/><path class="cls-3" d="M91.11,17.68a6.13,6.13,0,0,1,6,4.48c-.3-3.29-2.81-5.81-5.79-5.72a5.63,5.63,0,0,0-5,3.87A6,6,0,0,1,91.11,17.68Z"/><path class="cls-3" d="M55.35,35.91c6.42,1.46,11.17,5.43,11.93,9.52.59-4.67-4.12-9.54-10.9-11.08-5.18-1.18-10.11-.08-12.81,2.49A18,18,0,0,1,55.35,35.91Z"/><path class="cls-3" d="M72.31,23.24C78.8,24.31,83.79,28,84.78,32c.32-4.7-4.68-9.28-11.54-10.42-5.24-.86-10.09.53-12.64,3.26A18.1,18.1,0,0,1,72.31,23.24Z"/><path class="cls-1" d="M122.27,69.49a9.94,9.94,0,0,1-9.7-6.65,9.15,9.15,0,0,0,9.24,8.4A9.32,9.32,0,0,0,130.25,66,10.55,10.55,0,0,1,122.27,69.49Z"/><path class="cls-3" d="M84.05,71.83a26.46,26.46,0,0,1-10.87-3.12c1.38,2.59,5.91,4.78,11.43,5.27,6.47.58,12-1.38,12.83-4.43C94.92,71.38,89.81,72.34,84.05,71.83Z"/><path class="cls-3" d="M160.86,59.81c-6.2,0-11.74-1.47-15.47-3.79,2.24,4.35,8.79,7.5,16.52,7.5,9.06,0,16.49-4.32,17.28-9.83C175.91,57.32,168.93,59.81,160.86,59.81Z"/><path class="cls-3" d="M184.28,62.88a22.13,22.13,0,0,1-13-3.8c1.88,4.35,7.37,7.5,13.86,7.5,7.59,0,13.82-4.32,14.49-9.83C196.89,60.38,191.05,62.88,184.28,62.88Z"/><path class="cls-4" d="M93.48,36.24c-2.06-4.94-8.59-7.8-15.66-7.29,5.76.42,10.71,3.11,12.46,7.29,2.48,6-2.46,12.68-11,15a23.19,23.19,0,0,1-4.38.74,22.5,22.5,0,0,0,7.58-.74C91,48.92,96,42.2,93.48,36.24Z"/><path class="cls-4" d="M109.58,44a7.26,7.26,0,0,0-9.4,1.84,7.3,7.3,0,0,1,8.29-.68A9.75,9.75,0,0,1,112.85,57a8.31,8.31,0,0,1-1.11,2A7.75,7.75,0,0,0,114,55.8,9.76,9.76,0,0,0,109.58,44Z"/><path class="cls-3" d="M195.31,45.46c-2.15-4.17-9-6.57-16.34-6.15,6,.36,11.17,2.62,13,6.15,2.6,5-2.56,10.68-11.5,12.65a28.82,28.82,0,0,1-4.56.61,29.25,29.25,0,0,0,7.9-.61C192.75,56.14,197.9,50.48,195.31,45.46Z"/></g></g></svg>