<svg xmlns="http://www.w3.org/2000/svg" viewBox="0 0 243.9 128.05"><defs><style>.cls-1{fill:#c7adf7;}.cls-2{fill:#fff;}.cls-3{fill:#d3d2f9;}</style></defs><title>Asset 2cloud</title><g id="Layer_2" data-name="Layer 2"><g id="Layer_2-2" data-name="Layer 2"><path class="cls-1" d="M113.92,64.92c0,11.08-8.49,20-19,20s-19-9-19-20,8.49-20.05,19-20.05S113.92,53.85,113.92,64.92Z"/><path class="cls-1" d="M173,35.79C173,16.06,156.21.06,135.53.06c-17,0-31.29,10.76-35.9,25.51C88.15,27,79.28,36.39,79.28,47.74c0,12.36,10.51,22.38,23.47,22.38A24.18,24.18,0,0,0,116,66.25a38.72,38.72,0,0,0,19.58,5.26C156.21,71.51,173,55.52,173,35.79Z"/><path class="cls-1" d="M83.79,71.51A18.73,18.73,0,0,0,67.7,81a18.19,18.19,0,0,0-10.6-3.42c-9.15,0-16.78,6.84-18.57,16-1-.08-1.94-.14-2.94-.14a29.68,29.68,0,0,0-13,2.75c-1.17-.11-2.37-.18-3.6-.18-10.48,0-19,4.49-19,10s8.49,10,19,10a29.68,29.68,0,0,0,13-2.75,35.24,35.24,0,0,0,3.6.19,33.43,33.43,0,0,0,8.65-1.11,18.36,18.36,0,0,0,12.86,5.34,18.74,18.74,0,0,0,16.09-9.47,18.15,18.15,0,0,0,10.6,3.43c10.47,0,19-9,19-20.06S94.26,71.51,83.79,71.51Z"/><path class="cls-1" d="M184,91c3.51-2.57,5.65-5.92,5.65-9.6,0-8.1-10.33-14.67-23.08-14.67s-23.07,6.57-23.07,14.67c0,5,3.86,9.32,9.76,12-3.51,2.58-5.65,5.93-5.65,9.6,0,8.11,10.33,14.68,23.07,14.68S193.7,111.09,193.7,103C193.7,98,189.84,93.67,184,91Z"/><path class="cls-2" d="M188.37,77.16a26.79,26.79,0,1,0,6.38-52.81h-.68C187.55,10.08,171.76,0,153.3,0c-24.28,0-44,17.45-44,39,0,.4,0,.8,0,1.2C92.89,41.33,80,51.23,80,63.26c0,5.9,3.1,11.29,8.2,15.38-9.77,1.5-17.88,5.28-22.46,10.28a27,27,0,0,0-6.26-.73C48.17,88.19,39,95,39,103.46c0,.16,0,.32,0,.47a33.46,33.46,0,0,0-5.65-.47,27.83,27.83,0,0,0-10.85,2,14.59,14.59,0,0,0-7.67-2c-5.69,0-10.31,2.65-10.31,5.92s4.62,5.91,10.31,5.91a15.43,15.43,0,0,0,6.68-1.41,26.13,26.13,0,0,0,11.84,2.45,26.74,26.74,0,0,0,11.42-2.24,24.25,24.25,0,0,0,14.72,4.65,24.21,24.21,0,0,0,14.94-4.82,54.34,54.34,0,0,0,23.17,4.82,57.46,57.46,0,0,0,18.89-3,32.19,32.19,0,0,0,44.37,5.48c2.51,2.19,7,3.66,12.11,3.66,7.49,0,13.62-3.13,14.22-7.1a7.55,7.55,0,0,0,3.85,1c3.44,0,6.23-2.1,6.23-4.68s-2.79-4.68-6.23-4.68h-.35a2.28,2.28,0,0,0,.44-1.29c0-2.56-4.86-4.64-10.86-4.64a19.53,19.53,0,0,0-8,1.52,32.23,32.23,0,0,0,1.43-9.53,33.67,33.67,0,0,0-.3-4.41,11.36,11.36,0,0,0,2.35.26C182.6,91.3,188.17,85,188.37,77.16Z"/><path class="cls-3" d="M185.37,21.5s18.68,23.9-11.27,34.35C174.1,55.85,198,43.48,185.37,21.5Z"/><path class="cls-3" d="M169.7,78.93s18.69-12.09,4.4-23.08C174.1,55.85,183.72,64.09,169.7,78.93Z"/><path class="cls-3" d="M126.13,82.23s24.06,26.93,43.57-3.3C169.7,78.93,154.56,104.49,126.13,82.23Z"/><path class="cls-3" d="M182.61,62s19.25,16.63,33.54-7.56C216.15,54.47,202.94,73.44,182.61,62Z"/><path class="cls-2" d="M195.54,31.21s17.38.36,17,14.57C212.57,45.78,209.83,34.87,195.54,31.21Z"/><path class="cls-3" d="M111.44,41.83s5.77-2.4,16.49,5.67,12.64,28.41,0,34.18C127.93,81.68,143.59,54.2,111.44,41.83Z"/><path class="cls-3" d="M120.51,99.82s-5-24.21-32.29-21.18C88.22,78.64,111.17,80,120.51,99.82Z"/><path class="cls-3" d="M152.39,110.81c.79.86-10.72-21.71-31.88-11C120.51,99.82,137.55,94.6,152.39,110.81Z"/><path class="cls-3" d="M39,103.93s9.64-11.27,18.09-7,4,8.94,4,8.94S54.61,92.17,39,103.93Z"/><path class="cls-3" d="M84.24,108.06s-.55-19.78-23.09-2.2C61.15,105.86,78.19,95.15,84.24,108.06Z"/><path class="cls-2" d="M243.9,120c0,1.88-16.05,3.41-35.84,3.41s-35.83-1.53-35.83-3.41,16-3.41,35.83-3.41S243.9,118.09,243.9,120Z"/><path class="cls-2" d="M212.55,123.39c0,.92-10.56,1.67-23.59,1.67s-23.58-.75-23.58-1.67,10.56-1.66,23.58-1.66S212.55,122.47,212.55,123.39Z"/><path class="cls-2" d="M208.06,115.47c0,.6-7.49,1.1-16.73,1.1s-16.74-.5-16.74-1.1,7.49-1.1,16.74-1.1S208.06,114.86,208.06,115.47Z"/><path class="cls-2" d="M151.9,123.39c0,1.61-14.37,2.92-32.1,2.92S87.69,125,87.69,123.39s14.38-2.91,32.11-2.91S151.9,121.78,151.9,123.39Z"/><path class="cls-2" d="M140.44,126.69c0,.75-14.41,1.36-32.18,1.36s-32.19-.61-32.19-1.36,14.41-1.36,32.19-1.36S140.44,125.94,140.44,126.69Z"/><path class="cls-2" d="M120,66.74c0,1.34-11.23,2.43-25.07,2.43s-25.06-1.09-25.06-2.43S81.11,64.3,95,64.3,120,65.39,120,66.74Z"/><path class="cls-2" d="M117.89,58.78c0,1.55-21.52,2.81-48.08,2.81s-48.08-1.26-48.08-2.81S43.26,56,69.81,56,117.89,57.23,117.89,58.78Z"/><path class="cls-2" d="M104.36,54.67c0,1.19-10,2.15-22.31,2.15s-22.3-1-22.3-2.15,10-2.16,22.3-2.16S104.36,53.48,104.36,54.67Z"/><path class="cls-2" d="M95.36,61.59c0,1.59-6,2.88-13.31,2.88s-13.3-1.29-13.3-2.88,6-2.89,13.3-2.89S95.36,60,95.36,61.59Z"/></g></g></svg>